<?xml version="1.0" standalone="no"?><!DOCTYPE svg PUBLIC "-//W3C//DTD SVG 1.1//EN" "http://www.w3.org/Graphics/SVG/1.1/DTD/svg11.dtd"><svg t="1578384162071" class="icon" viewBox="0 0 1024 1024" version="1.1" xmlns="http://www.w3.org/2000/svg" p-id="9368" width="32" height="32" xmlns:xlink="http://www.w3.org/1999/xlink"><defs><style type="text/css"></style></defs><path d="M766.234483 706.206897c67.089655-74.151724 105.931034-173.02069 105.931034-282.482759 0-233.048276-190.675862-423.724138-427.255172-423.724138C208.331034 0 17.655172 190.675862 17.655172 427.255172c0 236.57931 190.675862 427.255172 427.255173 427.255173 95.337931 0 183.613793-31.77931 254.234483-84.744828l250.703448 254.234483 56.496552-60.027586-240.110345-257.765517z m-77.682759 3.531034c-63.558621 52.965517-148.303448 88.275862-243.641379 88.275862-211.862069 0-370.758621-158.896552-370.758621-370.758621S233.048276 56.496552 444.910345 56.496552s370.758621 158.896552 370.758621 370.75862c0 95.337931-31.77931 180.082759-88.275863 243.64138L688.551724 709.737931z" fill="#ffffff" p-id="9369"></path></svg>